<svg width="361" height="32" viewBox="-8 -8 377 42" fill="none" xmlns="http://www.w3.org/2000/svg">
<path stroke="black" stroke-width="1" d="M24.0964 5.62111H15.6709V31.0621H8.27646V5.62111H0V0.0888602H24.0958V5.62111H24.0964ZM42.298 19.1909V31.0615H34.9035V0.0888602H45.9949C49.6848 0.0888602 52.6132 0.923754 54.7715 2.57918C56.9303 4.2415 58.0132 6.50714 58.0132 9.38991C58.0132 10.9867 57.5728 12.3658 56.7062 13.5132C55.8402 14.6601 54.5628 15.5967 52.8668 16.3236C54.8241 16.8603 56.228 17.7532 57.0793 19.0093C57.9305 20.2659 58.3573 21.8266 58.3573 23.6998V25.6597C58.3573 26.4665 58.4844 27.3881 58.7309 28.4264C58.9845 29.4578 59.4101 30.1985 60.0231 30.6335V31.0615H52.3892C51.8069 30.6185 51.4257 29.8491 51.2459 28.7453C51.0739 27.6346 50.9847 26.5963 50.9847 25.616V23.7429C50.9847 22.269 50.5815 21.1434 49.7823 20.3596C48.9831 19.5827 47.8026 19.1903 46.2568 19.1903H42.2985L42.298 19.1909ZM42.298 13.6586H46.0398C47.5259 13.6586 48.6692 13.3322 49.453 12.6715C50.2446 12.0101 50.6329 11.0666 50.6329 9.83236C50.6329 8.56881 50.2298 7.55234 49.4229 6.78295C48.6089 6.00609 47.4656 5.62054 45.9943 5.62054H42.2974V13.658L42.298 13.6586ZM87.9642 25.0432H78.4931L76.6552 31.0621H68.8647L79.2544 0.0894348H83.2204V0.11127L83.2428 0.0894348H87.2016L97.6139 31.0621H89.8233L87.9636 25.0432H87.9642ZM80.1955 19.5109H86.2606L83.2806 9.89786H83.1536L80.1955 19.5109ZM134.272 31.0621H126.892L115.233 11.5751L115.098 11.6188V31.0621H107.703V0.0894348H115.098L126.765 19.5546L126.892 19.5109V0.0894348H134.272V31.0621ZM163.588 22.8511C163.588 21.7473 163.214 20.898 162.474 20.3096C161.728 19.7218 160.376 19.0966 158.426 18.4289C154.468 17.1803 151.532 15.8513 149.612 14.4355C147.701 13.0271 146.737 10.9942 146.737 8.34414C146.737 5.75212 147.857 3.65425 150.083 2.0494C152.317 0.445112 155.155 -0.353582 158.599 -0.353582C162.229 -0.353582 165.157 0.473842 167.375 2.1218C169.593 3.77779 170.662 6.1009 170.595 9.11353L170.55 9.23707H163.371C163.371 7.77816 162.96 6.71802 162.146 6.05723C161.324 5.39587 160.092 5.06949 158.449 5.06949C157.105 5.06949 156.044 5.38897 155.274 6.0285C154.497 6.66746 154.117 7.45121 154.117 8.38781C154.117 9.29568 154.513 10.0214 155.304 10.5661C156.104 11.1108 157.583 11.8004 159.756 12.6203C163.445 13.681 166.239 14.9802 168.137 16.5127C170.034 18.0445 170.983 20.143 170.983 22.8074C170.983 25.5299 169.892 27.6645 167.704 29.2033C165.515 30.7426 162.61 31.5051 158.994 31.512C155.387 31.5051 152.339 30.6846 149.837 29.0292C147.335 27.3812 146.117 24.7817 146.191 21.2318L146.236 21.1083H153.438C153.438 22.9091 153.893 24.187 154.804 24.9489C155.715 25.704 157.113 26.082 158.995 26.082C160.541 26.082 161.691 25.7838 162.453 25.1885C163.207 24.5933 163.589 23.8164 163.589 22.8511H163.588ZM194.241 22.6615L194.457 23.7877H194.591L194.807 22.7425L201.134 0.0894348H208.88L198.55 31.0621H190.565L180.28 0.0894348H188.003L194.24 22.6615H194.241ZM245.426 18.3634C245.426 22.1748 244.179 25.319 241.691 27.7949C239.205 30.2709 235.955 31.5051 231.944 31.512C227.903 31.5051 224.631 30.2709 222.122 27.7949C219.612 25.319 218.358 22.1753 218.358 18.3634V12.7875C218.358 8.98999 219.605 5.84578 222.107 3.3704C224.609 0.88698 227.873 -0.354156 231.899 -0.354156C235.895 -0.354156 239.152 0.88698 241.661 3.3704C244.171 5.84578 245.426 8.98942 245.426 12.7875V18.3634ZM238.046 12.7513C238.046 10.5368 237.516 8.72165 236.441 7.30584C235.372 5.88255 233.857 5.17867 231.899 5.17867C229.905 5.17867 228.374 5.88255 227.313 7.29147C226.26 8.69982 225.73 10.5225 225.73 12.7513V18.3634C225.73 20.6067 226.268 22.4293 227.336 23.8526C228.411 25.2684 229.95 25.9792 231.945 25.9792C233.887 25.9792 235.388 25.2678 236.456 23.8526C237.517 22.4293 238.047 20.6073 238.047 18.3634V12.7513H238.046ZM265.136 25.5293H278.813V31.0621H257.742V0.0894348H265.136V25.5299V25.5293ZM308.27 5.62111H299.845V31.0621H292.45V5.62111H284.174V0.0888602H308.27V5.62111H308.27Z" fill="white"/>
<path fill-rule="evenodd" clip-rule="evenodd" d="M319.191 -0.354156H331.543L343.492 15.7645L331.543 31.8832H319.191L331.141 15.7645L319.191 -0.354156Z" fill="#548235"/>
<path fill-rule="evenodd" clip-rule="evenodd" d="M336.699 -0.354156H349.051L361 15.7645L349.051 31.8832H336.699L348.648 15.7645L336.699 -0.354156Z" fill="#4472C4"/>
</svg>
